# xmcd
#
# Track frame offsets:
#   150
#   24675
#   42316
#   63091
#   91810
#   117430
#   137880
#   160269
#   180832
#   198589
#   219929
#   242559
#   259112
#   277799
#
# Disc length: 4753 seconds
#
# Revision: 0
# Processed by: cddbd v1.5.2PL0 Copyright (c) Steve Scherf et al.
# Submitted via: uFREEDB 1.6.2
#
DISCID=ba128f0e
DTITLE=rewt - fdt
DYEAR=1900
DGENRE=Books and Spoken
TTITLE0=c1q
TTITLE1=c2q
TTITLE2=c3q
TTITLE3=c4q
TTITLE4=c5q
TTITLE5=c6q
TTITLE6=c7q
TTITLE7=c8q
TTITLE8=c9q
TTITLE9=c10q
TTITLE10=c11q
TTITLE11=c12q
TTITLE12=c13q
TTITLE13=c14q
EXTD=
EXTT0=
EXTT1=
EXTT2=
EXTT3=
EXTT4=
EXTT5=
EXTT6=
EXTT7=
EXTT8=
EXTT9=
EXTT10=
EXTT11=
EXTT12=
EXTT13=
PLAYORDER=
